<svg aria-hidden="true" style="position: absolute; width: 0; height: 0; overflow: hidden;" version="1.1" xmlns="http://www.w3.org/2000/svg" xmlns:xlink="http://www.w3.org/1999/xlink">
    <defs>
        <symbol id="icon-Vector" viewBox="0 0 32 32">
            <path d="M17.141 23.541c0.306-0.307 0.459-0.688 0.459-1.141s-0.154-0.833-0.461-1.139c-0.307-0.306-0.687-0.46-1.139-0.461s-0.832 0.152-1.139 0.461-0.461 0.688-0.461 1.139c0 0.451 0.154 0.832 0.461 1.141s0.687 0.462 1.139 0.459c0.452-0.003 0.832-0.155 1.141-0.459zM17.141 17.139c0.306-0.306 0.459-0.686 0.459-1.139v-6.4c0-0.453-0.154-0.833-0.461-1.139s-0.687-0.46-1.139-0.461c-0.452-0.001-0.832 0.153-1.139 0.461s-0.461 0.688-0.461 1.139v6.4c0 0.453 0.154 0.834 0.461 1.141s0.687 0.46 1.139 0.459c0.452-0.001 0.832-0.155 1.141-0.461zM16 32c-2.213 0-4.293-0.42-6.24-1.261s-3.64-1.98-5.080-3.419c-1.44-1.439-2.58-3.132-3.419-5.080s-1.26-4.028-1.261-6.24c-0.001-2.212 0.419-4.292 1.261-6.24s1.981-3.641 3.419-5.080c1.438-1.439 3.131-2.579 5.080-3.419s4.029-1.261 6.24-1.261c2.211 0 4.291 0.42 6.24 1.261s3.642 1.98 5.080 3.419c1.438 1.439 2.578 3.132 3.421 5.080s1.262 4.028 1.259 6.24c-0.003 2.212-0.424 4.292-1.261 6.24s-1.977 3.641-3.419 5.080c-1.442 1.439-3.136 2.579-5.080 3.421s-4.024 1.261-6.24 1.259zM16 28.8c3.573 0 6.6-1.24 9.080-3.72s3.72-5.507 3.72-9.080c0-3.573-1.24-6.6-3.72-9.080s-5.507-3.72-9.080-3.72c-3.573 0-6.6 1.24-9.080 3.72s-3.72 5.507-3.72 9.080c0 3.573 1.24 6.6 3.72 9.080s5.507 3.72 9.080 3.72z"></path>
        </symbol>
        <symbol id="map" viewBox="0 0 32 32">
            <path d="M31.634 0.226c0.115 0.094 0.207 0.212 0.27 0.346s0.096 0.28 0.096 0.428v28c-0 0.231-0.080 0.455-0.227 0.634s-0.351 0.301-0.577 0.346l-10 2c-0.129 0.026-0.263 0.026-0.392 0l-9.804-1.96-9.804 1.96c-0.145 0.029-0.295 0.025-0.438-0.010s-0.277-0.103-0.392-0.197c-0.114-0.094-0.207-0.212-0.27-0.345s-0.096-0.28-0.096-0.428v-28c0-0.231 0.080-0.455 0.227-0.634s0.351-0.301 0.577-0.346l10-2c0.129-0.026 0.263-0.026 0.392 0l9.804 1.96 9.804-1.96c0.145-0.029 0.295-0.026 0.438 0.010s0.277 0.103 0.392 0.196zM20 3.82l-8-1.6v25.96l8 1.6v-25.96zM22 29.78l8-1.6v-25.96l-8 1.6v25.96zM10 28.18v-25.96l-8 1.6v25.96l8-1.6z"></path>
        </symbol>
        <symbol id="icon-Group" viewBox="0 0 32 32">
            <path d="M6 5c0-0.265 0.105-0.52 0.293-0.707s0.442-0.293 0.707-0.293h10c0.265 0 0.52 0.105 0.707 0.293s0.293 0.442 0.293 0.707v10c0 0.265-0.105 0.52-0.293 0.707s-0.442 0.293-0.707 0.293h-10c-0.265 0-0.52-0.105-0.707-0.293s-0.293-0.442-0.293-0.707v-10z"></path>
            <path d="M2 4c0-1.061 0.421-2.078 1.172-2.828s1.768-1.172 2.828-1.172h12c1.061 0 2.078 0.421 2.828 1.172s1.172 1.768 1.172 2.828v16c1.061 0 2.078 0.421 2.828 1.172s1.172 1.768 1.172 2.828v1c0 0.265 0.105 0.52 0.293 0.707s0.442 0.293 0.707 0.293 0.52-0.105 0.707-0.293c0.188-0.188 0.293-0.442 0.293-0.707v-9h-1c-0.265 0-0.52-0.105-0.707-0.293s-0.293-0.442-0.293-0.707v-6.25c0-0.265 0.105-0.52 0.293-0.707s0.442-0.293 0.707-0.293h2.99c-0.022-0.952-0.106-1.788-0.402-2.444-0.158-0.381-0.435-0.702-0.788-0.916-0.368-0.22-0.928-0.39-1.8-0.39-0.265 0-0.52-0.105-0.707-0.293s-0.293-0.442-0.293-0.707 0.105-0.52 0.293-0.707c0.188-0.188 0.442-0.293 0.707-0.293 1.128-0.003 2.069 0.221 2.824 0.672 0.766 0.456 1.268 1.102 1.588 1.814 0.59 1.31 0.588 2.93 0.588 4.162v6.35c0 0.132-0.025 0.262-0.076 0.383s-0.124 0.232-0.217 0.325c-0.093 0.093-0.203 0.167-0.325 0.217s-0.252 0.076-0.383 0.076h-1v9c0 0.796-0.316 1.559-0.879 2.121s-1.326 0.879-2.121 0.879-1.559-0.316-2.121-0.879c-0.563-0.563-0.879-1.326-0.879-2.121v-1c0-0.53-0.211-1.039-0.586-1.414s-0.884-0.586-1.414-0.586v8h1c0.265 0 0.52 0.105 0.707 0.293s0.293 0.442 0.293 0.707-0.105 0.52-0.293 0.707c-0.188 0.188-0.442 0.293-0.707 0.293h-22c-0.265 0-0.52-0.105-0.707-0.293s-0.293-0.442-0.293-0.707 0.105-0.52 0.293-0.707c0.188-0.188 0.442-0.293 0.707-0.293h1v-26zM20 4c0-0.53-0.211-1.039-0.586-1.414s-0.884-0.586-1.414-0.586h-12c-0.53 0-1.039 0.211-1.414 0.586s-0.586 0.884-0.586 1.414v26h16v-26z"></path>
        </symbol>
        <symbol id="star" viewBox="0 0 32 32">
            <path d="M15.116 1.676c0.375-0.711 1.394-0.711 1.769 0l3.777 7.158c0.145 0.274 0.408 0.466 0.714 0.519l7.975 1.38c0.792 0.137 1.107 1.106 0.547 1.682l-5.641 5.804c-0.216 0.222-0.317 0.532-0.273 0.839l1.152 8.010c0.114 0.796-0.71 1.395-1.431 1.040l-7.263-3.571c-0.278-0.137-0.604-0.137-0.882 0l-7.262 3.571c-0.722 0.355-1.546-0.244-1.431-1.040l1.152-8.010c0.044-0.307-0.057-0.617-0.273-0.839l-5.64-5.804c-0.56-0.577-0.246-1.545 0.547-1.682l7.974-1.38c0.306-0.053 0.569-0.244 0.714-0.519l3.776-7.158z"></path>
        </symbol>
        <symbol id="icon-Vector-1" viewBox="0 0 32 32">
            <path d="M31.973 12.532c-0.019-0.088-0.047-0.174-0.083-0.257l-3.148-7.347c-0.726-1.697-2.492-2.795-4.501-2.795h-16.482c-2.008 0-3.775 1.098-4.5 2.795l-3.152 7.347c-0.072 0.166-0.108 0.344-0.107 0.525v14.667c0 0.354 0.14 0.693 0.391 0.943s0.589 0.391 0.943 0.391h2.667c0.354 0 0.693-0.14 0.943-0.391s0.391-0.589 0.391-0.943v-1.333h21.333v1.333c0 0.354 0.141 0.693 0.391 0.943s0.589 0.391 0.943 0.391h2.667c0.354 0 0.693-0.14 0.943-0.391s0.391-0.589 0.391-0.943v-14.667c0-0.090-0.009-0.18-0.027-0.268zM6.667 20.8c-0.527 0-1.043-0.156-1.482-0.449s-0.78-0.709-0.982-1.197c-0.202-0.487-0.255-1.023-0.152-1.541s0.357-0.992 0.73-1.365c0.373-0.373 0.848-0.627 1.365-0.73s1.053-0.050 1.541 0.152c0.487 0.202 0.904 0.544 1.197 0.982s0.449 0.954 0.449 1.482c0 0.707-0.281 1.386-0.781 1.886s-1.178 0.781-1.886 0.781zM25.333 20.8c-0.527 0-1.043-0.156-1.482-0.449s-0.78-0.709-0.982-1.197c-0.202-0.487-0.255-1.023-0.152-1.541s0.357-0.992 0.73-1.365 0.848-0.627 1.365-0.73c0.517-0.103 1.054-0.050 1.541 0.152s0.904 0.544 1.197 0.982c0.293 0.439 0.45 0.954 0.45 1.482 0 0.707-0.281 1.386-0.781 1.886s-1.178 0.781-1.886 0.781zM3.355 11.467l2.352-5.487c0.302-0.705 1.126-1.179 2.052-1.179h16.482c0.925 0 1.75 0.474 2.052 1.179l2.352 5.487h-25.29z"></path>
        </symbol>
        <symbol id="clear" viewBox="0 0 32 32">
            <path stroke="currentColor" stroke-width="3.5" stroke-linejoin="round" stroke-linecap="round" stroke-miterlimit="4" d="M30 30l-28-28M30 2l-28 28"></path>
        </symbol>
        <symbol id="icon-Vector-3" viewBox="0 0 43 32">
            <path d="M16 4c0-1.061 0.421-2.078 1.172-2.828s1.768-1.172 2.828-1.172h2.667c1.061 0 2.078 0.421 2.828 1.172s1.172 1.768 1.172 2.828v2.667c0 1.061-0.421 2.078-1.172 2.828s-1.767 1.172-2.828 1.172v2.667h14.667c0.354 0 0.693 0.14 0.943 0.391s0.391 0.589 0.391 0.943v2.667c0 0.354-0.14 0.693-0.391 0.943s-0.589 0.391-0.943 0.391-0.693-0.14-0.943-0.391c-0.25-0.25-0.391-0.589-0.391-0.943v-1.333h-13.333v1.333c0 0.354-0.14 0.693-0.391 0.943s-0.589 0.391-0.943 0.391c-0.354 0-0.693-0.14-0.943-0.391s-0.391-0.589-0.391-0.943v-1.333h-13.333v1.333c0 0.354-0.14 0.693-0.391 0.943s-0.589 0.391-0.943 0.391c-0.354 0-0.693-0.14-0.943-0.391s-0.391-0.589-0.391-0.943v-2.667c0-0.354 0.14-0.693 0.391-0.943s0.589-0.391 0.943-0.391h14.667v-2.667c-1.061 0-2.078-0.421-2.828-1.172s-1.172-1.768-1.172-2.828v-2.667zM22.667 8c0.354 0 0.693-0.14 0.943-0.391s0.391-0.589 0.391-0.943v-2.667c0-0.354-0.14-0.693-0.391-0.943s-0.589-0.391-0.943-0.391h-2.667c-0.354 0-0.693 0.14-0.943 0.391s-0.391 0.589-0.391 0.943v2.667c0 0.354 0.14 0.693 0.391 0.943s0.589 0.391 0.943 0.391h2.667zM0 25.333c0-1.061 0.421-2.078 1.172-2.828s1.768-1.172 2.828-1.172h2.667c1.061 0 2.078 0.421 2.828 1.172s1.172 1.767 1.172 2.828v2.667c0 1.061-0.421 2.078-1.172 2.828s-1.768 1.172-2.828 1.172h-2.667c-1.061 0-2.078-0.421-2.828-1.172s-1.172-1.767-1.172-2.828v-2.667zM4 24c-0.354 0-0.693 0.14-0.943 0.391s-0.391 0.589-0.391 0.943v2.667c0 0.354 0.14 0.693 0.391 0.943s0.589 0.391 0.943 0.391h2.667c0.354 0 0.693-0.14 0.943-0.391s0.391-0.589 0.391-0.943v-2.667c0-0.354-0.14-0.693-0.391-0.943s-0.589-0.391-0.943-0.391h-2.667zM16 25.333c0-1.061 0.421-2.078 1.172-2.828s1.768-1.172 2.828-1.172h2.667c1.061 0 2.078 0.421 2.828 1.172s1.172 1.767 1.172 2.828v2.667c0 1.061-0.421 2.078-1.172 2.828s-1.767 1.172-2.828 1.172h-2.667c-1.061 0-2.078-0.421-2.828-1.172s-1.172-1.767-1.172-2.828v-2.667zM20 24c-0.354 0-0.693 0.14-0.943 0.391s-0.391 0.589-0.391 0.943v2.667c0 0.354 0.14 0.693 0.391 0.943s0.589 0.391 0.943 0.391h2.667c0.354 0 0.693-0.14 0.943-0.391s0.391-0.589 0.391-0.943v-2.667c0-0.354-0.14-0.693-0.391-0.943s-0.589-0.391-0.943-0.391h-2.667zM32 25.333c0-1.061 0.421-2.078 1.172-2.828s1.767-1.172 2.828-1.172h2.667c1.061 0 2.078 0.421 2.828 1.172s1.172 1.767 1.172 2.828v2.667c0 1.061-0.421 2.078-1.172 2.828s-1.767 1.172-2.828 1.172h-2.667c-1.061 0-2.078-0.421-2.828-1.172s-1.172-1.767-1.172-2.828v-2.667zM36 24c-0.354 0-0.693 0.14-0.943 0.391s-0.391 0.589-0.391 0.943v2.667c0 0.354 0.14 0.693 0.391 0.943s0.589 0.391 0.943 0.391h2.667c0.354 0 0.693-0.14 0.943-0.391s0.391-0.589 0.391-0.943v-2.667c0-0.354-0.14-0.693-0.391-0.943s-0.589-0.391-0.943-0.391h-2.667z"></path>
        </symbol>
    </defs>
</svg>